<?xml version="1.0" encoding="UTF-8"?>
<svg version="1.1" xmlns="http://www.w3.org/2000/svg" width="512" height="512">
<path d="M0 0 C1.00160156 0.56976563 2.00320313 1.13953125 3.03515625 1.7265625 C3.61813477 2.04818359 4.20111328 2.36980469 4.80175781 2.70117188 C6.92061421 3.88533316 9.00760918 5.11728625 11.09765625 6.3515625 C12.87432945 7.37616362 14.65172059 8.39952046 16.4296875 9.421875 C20.50220337 11.77537167 24.56129764 14.15039989 28.61328125 16.5390625 C35.08410562 20.35187734 41.58740583 24.10657298 48.09765625 27.8515625 C55.47693188 32.09940513 62.84353307 36.36715814 70.18920898 40.67285156 C80.47232735 46.69957522 90.82463755 52.58447774 101.23681641 58.38525391 C107.71318124 61.99904719 114.13930758 65.68132814 120.51757812 69.46508789 C126.82821062 73.20619807 133.17869837 76.87643167 139.53515625 80.5390625 C140.63077881 81.17054199 141.72640137 81.80202148 142.85522461 82.45263672 C147.45118116 85.10072433 152.04798199 87.74734424 156.64501953 90.39355469 C158.99676563 91.74734322 161.34824137 93.10159944 163.69946289 94.45629883 C165.89740059 95.72257244 168.09577625 96.9880863 170.29467773 98.25268555 C171.30216064 98.8331665 172.30964355 99.41364746 173.34765625 100.01171875 C174.2190625 100.51324463 175.09046875 101.01477051 175.98828125 101.53149414 C177.014375 102.1321167 178.04046875 102.73273926 179.09765625 103.3515625 C179.90214643 103.60052497 180.70663662 103.84948744 181.53550529 104.10599422 C184.89807085 105.43399766 186.71107965 106.60333805 189.09765625 109.3515625 C191.22182945 115.96479198 190.61145869 123.42129179 190.61376953 130.28125 C190.6502479 132.45650574 190.69076476 134.63169697 190.73501587 136.80680847 C190.84046525 142.71439076 190.88034559 148.62064837 190.90195322 154.52907181 C190.91795604 158.22362801 190.9471899 161.91784028 190.98095322 165.61227417 C191.1034754 179.17856285 191.15918308 192.74375094 191.17235087 206.31055558 C191.18651616 217.65134293 191.33530596 228.98598652 191.52351582 240.32527161 C191.68875375 250.64506752 191.76097309 260.96288687 191.76248348 271.28399658 C191.76514077 277.44378809 191.80541432 283.59761593 191.94083023 289.75604248 C192.73685582 328.32153042 192.73685582 328.32153042 186.73488617 335.74755859 C181.17098053 340.82505022 175.10414036 343.45295742 167.92086411 345.48985291 C163.99693389 346.68752891 160.93592765 348.54630394 157.47265625 350.7265625 C155.34815606 351.93577438 153.22316582 353.14412575 151.09765625 354.3515625 C142.4021207 359.30264412 133.73266549 364.29540916 125.09765625 369.3515625 C116.39747397 374.44445875 107.6657519 379.47974791 98.91015625 384.4765625 C98.31561646 384.81588806 97.72107666 385.15521362 97.10852051 385.50482178 C92.14135523 388.33911546 87.1723697 391.17021107 82.20263672 394 C71.23480148 400.24582054 60.30408989 406.55028291 49.40722656 412.91918945 C31.72709771 423.24868973 31.72709771 423.24868973 23.27807617 428.05078125 C18.5347062 430.7499735 13.85378714 433.46082542 9.32421875 436.5078125 C0.03914153 442.63641362 0.03914153 442.63641362 -4.9375 441.90625 C-8.22097325 440.3595264 -10.95677277 438.47178669 -13.90234375 436.3515625 C-15.74000929 435.23325137 -17.60185754 434.16491296 -19.46875 433.09619141 C-21.63097733 431.85455185 -23.77304423 430.58252661 -25.9140625 429.3046875 C-31.69192141 425.87117688 -37.51553723 422.51798816 -43.33984375 419.1640625 C-44.44602051 418.52670166 -45.55219727 417.88934082 -46.69189453 417.23266602 C-48.9635804 415.92393834 -51.2353913 414.61542766 -53.50732422 413.30712891 C-58.97404355 410.15824196 -64.43809262 407.00472986 -69.90234375 403.8515625 C-72.06899686 402.601539 -74.23566354 401.35153903 -76.40234375 400.1015625 C-141.40234373 362.60156251 -141.40234373 362.60156251 -144.65698242 360.72387695 C-146.80817599 359.48280996 -148.9593803 358.24176157 -151.1105957 357.00073242 C-156.16197374 354.08657906 -161.21324685 351.17224432 -166.26412964 348.25723267 C-168.05301293 347.22482772 -169.84193092 346.19248294 -171.63085938 345.16015625 C-173.87572011 343.86470302 -176.12051565 342.5691368 -178.36523438 341.2734375 C-179.38166016 340.68691406 -180.39808594 340.10039062 -181.4453125 339.49609375 C-182.3324292 338.98409424 -183.2195459 338.47209473 -184.13354492 337.94458008 C-187.38586723 336.07336916 -190.64451884 334.21317673 -193.90234375 332.3515625 C-193.90234375 258.7615625 -193.90234375 185.1715625 -193.90234375 109.3515625 C-184.66234375 104.0715625 -175.42234375 98.7915625 -165.90234375 93.3515625 C-158.30617445 88.97472209 -150.71086356 84.59664973 -143.12011719 80.21044922 C-137.7156373 77.08831645 -132.30886963 73.97015046 -126.90234375 70.8515625 C-124.73566625 69.60158128 -122.56899958 68.35158129 -120.40234375 67.1015625 C-98.73567708 54.6015625 -77.06901042 42.1015625 -55.40234375 29.6015625 C-54.32831299 28.98192627 -53.25428223 28.36229004 -52.14770508 27.72387695 C-49.99651151 26.48280996 -47.8453072 25.24176157 -45.6940918 24.00073242 C-40.64271376 21.08657906 -35.59144065 18.17224432 -30.54055786 15.25723267 C-28.75167457 14.22482772 -26.96275658 13.19248294 -25.17382812 12.16015625 C-22.92896739 10.86470302 -20.68417185 9.5691368 -18.43945312 8.2734375 C-16.45481156 7.12820996 -14.46699858 5.98845221 -12.4753418 4.85546875 C-10.89803367 3.93353896 -9.34071347 2.97481181 -7.82348633 1.95703125 C-4.88050835 0.01567022 -3.51658814 -0.78567111 0 0 Z M-11.90234375 42.4140625 C-13.45505145 43.33967947 -15.00848411 44.26408103 -16.5625 45.1875 C-17.41602051 45.69506836 -18.26954102 46.20263672 -19.14892578 46.72558594 C-24.18994646 49.70246107 -29.2662112 52.61823623 -34.33984375 55.5390625 C-35.44521484 56.17593994 -36.55058594 56.81281738 -37.68945312 57.46899414 C-39.96194432 58.7782248 -42.23456899 60.08722382 -44.50732422 61.39599609 C-49.9740435 64.54488301 -55.43812021 67.6983474 -60.90234375 70.8515625 C-67.42466814 74.61521615 -73.94748138 78.37800873 -80.47265625 82.13671875 C-92.05618559 88.8111406 -103.62146075 95.51498675 -115.16259766 102.26245117 C-125.03644717 108.02784664 -134.9625382 113.70080814 -144.90234375 119.3515625 C-141.669674 122.0423773 -138.47457178 124.29041058 -134.7890625 126.3125 C-133.30732544 127.13210205 -133.30732544 127.13210205 -131.7956543 127.96826172 C-130.73773682 128.54850098 -129.67981934 129.12874023 -128.58984375 129.7265625 C-120.03327576 134.46717068 -111.52566341 139.27416253 -103.08984375 144.2265625 C-94.39400779 149.32771691 -85.66228065 154.36164743 -76.90234375 159.3515625 C-68.20815942 164.30505849 -59.53751343 169.29559551 -50.90234375 174.3515625 C-42.54345875 179.24218889 -34.16509463 184.09742215 -25.76171875 188.91113281 C-24.5399307 189.6112225 -23.31856322 190.31204677 -22.09765625 191.01367188 C-20.38802199 191.99576178 -18.67645961 192.97449278 -16.96484375 193.953125 C-15.98644531 194.51338379 -15.00804687 195.07364258 -14 195.65087891 C-10.35454596 197.65231592 -6.62203033 199.49171921 -2.90234375 201.3515625 C-2.90234375 147.5615625 -2.90234375 93.7715625 -2.90234375 38.3515625 C-6.31937406 38.3515625 -9.04025621 40.68525135 -11.90234375 42.4140625 Z M-160.90234375 149.3515625 C-160.90234375 196.8715625 -160.90234375 244.3915625 -160.90234375 293.3515625 C-151.68596858 288.81000475 -151.68596858 288.81000475 -142.80859375 283.828125 C-141.773396 283.20800537 -140.73819824 282.58788574 -139.67163086 281.94897461 C-138.59276611 281.29807861 -137.51390137 280.64718262 -136.40234375 279.9765625 C-134.02024356 278.54999947 -131.63551998 277.12786706 -129.25 275.70703125 C-128.64362198 275.34567581 -128.03724396 274.98432037 -127.41249084 274.61201477 C-120.93275216 270.75966874 -114.3918354 267.01678574 -107.83984375 263.2890625 C-106.6682889 262.62207974 -105.49673943 261.95508755 -104.32519531 261.28808594 C-102.57577596 260.29220363 -100.82631968 259.29638675 -99.07669067 258.3008728 C-84.25902165 249.86575869 -69.51306315 241.30383329 -54.77734375 232.7265625 C-53.79991211 232.15856934 -52.82248047 231.59057617 -51.81542969 231.00537109 C-46.45073826 227.87706081 -41.14982416 224.67290893 -35.90234375 221.3515625 C-39.90887173 217.91295014 -44.09522276 215.46152207 -48.71484375 212.9765625 C-55.97253374 209.008706 -63.14338548 204.91261873 -70.27734375 200.7265625 C-79.1195938 195.54315001 -87.99664392 190.42482767 -96.90234375 185.3515625 C-105.67655894 180.35110326 -114.43183417 175.32035167 -123.15234375 170.2265625 C-124.11092285 169.66694824 -125.06950195 169.10733398 -126.05712891 168.53076172 C-131.26467669 165.48725299 -136.4647325 162.4313455 -141.66015625 159.3671875 C-142.76713867 158.71637207 -143.87412109 158.06555664 -145.01464844 157.39501953 C-147.15028613 156.13926968 -149.28383833 154.87996464 -151.41503906 153.61669922 C-152.84348145 152.77776123 -152.84348145 152.77776123 -154.30078125 151.921875 C-155.14302246 151.42445801 -155.98526367 150.92704102 -156.85302734 150.41455078 C-158.81347257 149.19808023 -158.81347257 149.19808023 -160.90234375 149.3515625 Z M13.09765625 231.3515625 C13.09765625 285.4715625 13.09765625 339.5915625 13.09765625 395.3515625 C21.77516525 390.62926099 21.77516525 390.62926099 30.3828125 385.79296875 C32.0237085 384.85505493 32.0237085 384.85505493 33.69775391 383.89819336 C34.84034668 383.24343018 35.98293945 382.58866699 37.16015625 381.9140625 C38.38978995 381.2103307 39.61944534 380.50663682 40.84912109 379.80297852 C52.20854219 373.29960494 63.5465878 366.75922611 74.87988281 360.21044922 C80.2843627 357.08831645 85.69113037 353.97015046 91.09765625 350.8515625 C93.26433375 349.60158128 95.43100042 348.35158129 97.59765625 347.1015625 C117.09765625 335.8515625 136.59765625 324.6015625 156.09765625 313.3515625 C152.8649865 310.6607477 149.66988428 308.41271442 145.984375 306.390625 C144.99655029 305.84422363 144.00872559 305.29782227 142.9909668 304.73486328 C141.93304932 304.15462402 140.87513184 303.57438477 139.78515625 302.9765625 C131.22858826 298.23595432 122.72097591 293.42896247 114.28515625 288.4765625 C105.58932029 283.37540809 96.85759315 278.34147757 88.09765625 273.3515625 C79.40347524 268.39806839 70.73263982 263.40784357 62.09765625 258.3515625 C49.75474196 251.1244545 37.34099683 244.02288435 24.90576172 236.95605469 C23.20123524 235.98212424 21.50103818 235.00049089 19.80908203 234.00488281 C16.66706421 232.00067651 16.66706421 232.00067651 13.09765625 231.3515625 Z M-24.6953125 251.95703125 C-25.70650146 252.52156006 -26.71769043 253.08608887 -27.75952148 253.66772461 C-28.85852783 254.28526611 -29.95753418 254.90280762 -31.08984375 255.5390625 C-32.22172119 256.17400635 -33.35359863 256.8089502 -34.51977539 257.46313477 C-42.5852565 261.99950373 -50.57463585 266.65634272 -58.52709961 271.38793945 C-68.81870377 277.50769442 -79.2000619 283.47008849 -89.57910156 289.43994141 C-99.35988643 295.06612018 -109.1333607 300.7049206 -118.90234375 306.3515625 C-120.03768555 307.00705078 -121.17302734 307.66253906 -122.34277344 308.33789062 C-125.69795874 310.27652636 -129.05051153 312.21963642 -132.40234375 314.1640625 C-133.4298877 314.75711182 -134.45743164 315.35016113 -135.51611328 315.96118164 C-136.45825684 316.50895264 -137.40040039 317.05672363 -138.37109375 317.62109375 C-139.20060547 318.10167236 -140.03011719 318.58225098 -140.88476562 319.07739258 C-143.01969825 320.3220557 -143.01969825 320.3220557 -144.90234375 322.3515625 C-144.33128906 322.67205566 -143.76023438 322.99254883 -143.171875 323.32275391 C-131.08860093 330.11119107 -119.05673727 336.97845158 -107.09521484 343.97924805 C-96.48587586 350.18753053 -85.83605872 356.32485024 -75.18457031 362.46044922 C-70.83595942 364.96597882 -66.48880195 367.4740229 -62.1418457 369.98242188 C-59.99735721 371.21975731 -57.85266607 372.45674159 -55.70776367 373.69335938 C-50.59740357 376.64001347 -45.48885949 379.58970629 -40.38583374 382.54904175 C-37.95682398 383.95744312 -35.52691187 385.36428343 -33.09692383 386.77099609 C-31.36776524 387.77288456 -29.63992595 388.77704891 -27.91210938 389.78125 C-26.87634766 390.38066406 -25.84058594 390.98007812 -24.7734375 391.59765625 C-23.8548999 392.13060303 -22.9363623 392.6635498 -21.98999023 393.21264648 C-20.15238504 394.43138198 -20.15238504 394.43138198 -18.90234375 394.3515625 C-18.90234375 346.5015625 -18.90234375 298.6515625 -18.90234375 249.3515625 C-20.9468382 249.3515625 -22.97728877 250.99759547 -24.6953125 251.95703125 Z " fill="#2F3030" transform="translate(258.90234375,34.6484375)"/>
<path d="M0 0 C0 54.45 0 108.9 0 165 C-3.71460266 164.07134934 -6.14458636 162.95881328 -9.453125 161.11328125 C-10.53456787 160.51201416 -11.61601074 159.91074707 -12.73022461 159.29125977 C-13.90363671 158.63194653 -15.07689105 157.97235246 -16.25 157.3125 C-17.47071338 156.62999972 -18.69149891 155.94762848 -19.91235352 155.26538086 C-28.62012743 150.38768178 -37.25913535 145.39633813 -45.86621094 140.34301758 C-53.54432843 135.83637867 -61.26396736 131.40606329 -69 127 C-77.69426099 122.04664634 -86.36496422 117.05618802 -95 112 C-103.94994008 106.76073397 -112.93265136 101.5816014 -121.9375 96.4375 C-122.52877686 96.09952393 -123.12005371 95.76154785 -123.72924805 95.41333008 C-130.46258997 91.56584067 -137.20871144 87.74438019 -144 84 C-144 83.34 -144 82.68 -144 82 C-142.9790625 81.44054687 -141.958125 80.88109375 -140.90625 80.3046875 C-131.04898688 74.87822603 -121.29923061 69.28692428 -111.59179688 63.59716797 C-103.75806077 59.01111713 -95.88737184 54.49282043 -88 50 C-79.30581119 45.04651716 -70.6350461 40.05617492 -62 35 C-49.83582886 27.8793605 -37.59805581 20.89065801 -25.3515625 13.91308594 C-22.09562029 12.05458046 -18.84389093 10.18894141 -15.59375 8.3203125 C-14.61301514 7.75715332 -13.63228027 7.19399414 -12.62182617 6.61376953 C-10.79032037 5.56169225 -8.95970898 4.50805593 -7.13012695 3.45263672 C-6.33050537 2.9938916 -5.53088379 2.53514648 -4.70703125 2.0625 C-4.0106958 1.66160156 -3.31436035 1.26070312 -2.59692383 0.84765625 C-1 0 -1 0 0 0 Z " fill="#2799CB" transform="translate(416,182)"/>
<path d="M0 0 C4.40412687 1.46804229 7.47882978 2.67715882 11.359375 4.94921875 C12.37902344 5.5421875 13.39867187 6.13515625 14.44921875 6.74609375 C16.08310547 7.70708984 16.08310547 7.70708984 17.75 8.6875 C18.90720972 9.36256639 20.06476857 10.03703462 21.22265625 10.7109375 C23.62570582 12.11015805 26.0272392 13.51192935 28.42773438 14.91552734 C33.93786812 18.13449365 39.47007617 21.31519845 45 24.5 C47.16676979 25.74982124 49.33343615 26.9998218 51.5 28.25 C53.10875 29.178125 53.10875 29.178125 54.75 30.125 C90.5 50.75 90.5 50.75 93.75463867 52.62768555 C95.90583224 53.86875254 98.05703655 55.10980093 100.20825195 56.35083008 C105.25962999 59.26498344 110.3109031 62.17931818 115.36178589 65.09432983 C117.15066918 66.12673478 118.93958717 67.15907956 120.72851562 68.19140625 C122.97337636 69.48685948 125.2181719 70.7824257 127.46289062 72.078125 C132.63571774 75.06307914 137.81145009 78.04245317 143 81 C143 81.66 143 82.32 143 83 C142.27748047 83.41137207 141.55496094 83.82274414 140.81054688 84.24658203 C128.17548317 91.44409858 115.54821437 98.65173491 103 106 C93.77201265 111.4035954 84.50005309 116.72652373 75.20898438 122.02050781 C67.11255666 126.63502918 59.04204967 131.29114616 51 136 C42.08975674 141.21487193 33.14964468 146.37503038 24.1875 151.5 C23.31339478 152.00055908 23.31339478 152.00055908 22.42163086 152.51123047 C20.73363766 153.47750897 19.04456343 154.44189822 17.35546875 155.40625 C16.39278076 155.95603516 15.43009277 156.50582031 14.43823242 157.07226562 C9.64910818 159.75741261 4.82009644 162.37085649 0 165 C0 110.55 0 56.1 0 0 Z " fill="#2799CB" transform="translate(256,72)"/>
</svg>
